<svg version="1.1" id="Layer_1" xmlns="http://www.w3.org/2000/svg" xmlns:xlink="http://www.w3.org/1999/xlink" x="0px" y="0px"
	 width="100%" viewBox="0 0 626 576" enable-background="new 0 0 626 576" xml:space="preserve">
<path fill="#E9AA02" opacity="1.000000" stroke="none" 
	d="
M1.000000,523.000000 
	C1.000000,396.311890 1.000000,269.623810 1.212326,142.113342 
	C1.612161,140.325058 1.961330,139.359467 1.963250,138.393173 
	C1.999752,120.018806 2.017428,101.644287 1.956184,83.270081 
	C1.951436,81.845673 1.333132,80.423309 1.000001,79.000000 
	C1.000000,71.645218 1.000000,64.290443 1.377396,56.275734 
	C2.170640,52.040684 2.154698,48.350124 3.074471,44.909725 
	C7.967502,26.607395 18.761711,13.137198 36.519264,5.915184 
	C41.804905,3.765509 47.495144,2.610668 53.000000,1.000000 
	C127.021431,1.000000 201.042862,1.000000 275.708252,1.367506 
	C281.241089,2.873970 286.130035,4.012928 291.277527,5.364165 
	C306.725464,12.464021 317.316284,23.807999 323.914154,39.406082 
	C325.355530,50.553745 326.813873,61.300346 328.334106,72.502930 
	C329.865387,72.502930 332.008240,72.502930 334.151093,72.502930 
	C406.877625,72.502937 479.604248,72.452560 552.330505,72.594658 
	C558.419495,72.606552 564.609558,73.431549 570.573669,74.712265 
	C586.410156,78.112976 599.026306,87.058548 610.056396,99.048248 
	C614.012268,105.736061 618.444824,111.828949 621.412292,118.567039 
	C624.104187,124.679459 625.200378,131.494629 627.000000,138.000000 
	C627.000000,263.354767 627.000000,388.709503 626.636719,514.701538 
	C625.150940,524.370789 621.754028,532.562805 617.247131,540.395203 
	C609.148865,554.468933 597.977966,565.080627 582.744141,571.024902 
	C576.936523,573.291077 570.920837,575.023987 565.000000,577.000000 
	C393.311890,577.000000 221.623810,577.000000 49.302414,576.639343 
	C47.687317,576.182617 46.671375,576.217285 45.728756,575.971191 
	C26.222946,570.877686 9.507713,557.010559 4.012614,536.453064 
	C2.826905,532.017273 1.994927,527.486816 1.000000,523.000000 
z"/>
<path fill="#FFCB1A" opacity="1.000000" stroke="none" 
	d="
M627.000000,137.531342 
	C625.200378,131.494629 624.104187,124.679459 621.412292,118.567039 
	C618.444824,111.828949 614.012268,105.736061 610.032776,98.647339 
	C606.000610,63.437138 578.009705,39.055141 541.909180,39.020557 
	C469.249908,38.950954 396.590485,39.003109 323.931152,39.005020 
	C317.316284,23.807999 306.725464,12.464021 291.738739,5.297811 
	C375.591766,5.012677 459.242157,4.960004 542.892334,5.085262 
	C549.759949,5.095545 556.725708,5.789102 563.474487,7.068849 
	C588.277832,11.772205 606.668396,25.657681 618.203674,47.929520 
	C622.236694,55.716171 624.129700,64.611176 627.000000,73.000008 
	C627.000000,94.354225 627.000000,115.708458 627.000000,137.531342 
z"/>
<path fill="none" opacity="1.000000" stroke="none" 
	d="
M627.000000,72.531349 
	C624.129700,64.611176 622.236694,55.716171 618.203674,47.929520 
	C606.668396,25.657681 588.277832,11.772205 563.474487,7.068849 
	C556.725708,5.789102 549.759949,5.095545 542.892334,5.085262 
	C459.242157,4.960004 375.591766,5.012677 291.480164,5.085531 
	C286.130035,4.012928 281.241089,2.873970 276.176086,1.367506 
	C392.878876,1.000000 509.757782,1.000000 627.000000,1.000000 
	C627.000000,24.686323 627.000000,48.374504 627.000000,72.531349 
z"/>
<path fill="none" opacity="1.000000" stroke="none" 
	d="
M565.468628,577.000000 
	C570.920837,575.023987 576.936523,573.291077 582.744141,571.024902 
	C597.977966,565.080627 609.148865,554.468933 617.247131,540.395203 
	C621.754028,532.562805 625.150940,524.370789 626.636719,515.169373 
	C627.000000,535.593506 627.000000,556.186951 627.000000,577.000000 
	C606.646301,577.000000 586.291809,577.000000 565.468628,577.000000 
z"/>
<path fill="none" opacity="1.000000" stroke="none" 
	d="
M52.531342,1.000000 
	C47.495144,2.610668 41.804905,3.765509 36.519264,5.915184 
	C18.761711,13.137198 7.967502,26.607395 3.074471,44.909725 
	C2.154698,48.350124 2.170640,52.040684 1.377396,55.807899 
	C1.000000,37.741943 1.000000,19.483891 1.000000,1.000000 
	C18.020229,1.000000 35.041454,1.000000 52.531342,1.000000 
z"/>
<path fill="none" opacity="1.000000" stroke="none" 
	d="
M1.000000,523.468628 
	C1.994927,527.486816 2.826905,532.017273 4.012614,536.453064 
	C9.507713,557.010559 26.222946,570.877686 45.728756,575.971191 
	C46.671375,576.217285 47.687317,576.182617 48.834560,576.639343 
	C33.068935,577.000000 17.137873,577.000000 1.000000,577.000000 
	C1.000000,559.312988 1.000000,541.625122 1.000000,523.468628 
z"/>
<path fill="#EEB208" opacity="1.000000" stroke="none" 
	d="
M1.000001,79.468658 
	C1.333132,80.423309 1.951436,81.845673 1.956184,83.270081 
	C2.017428,101.644287 1.999752,120.018806 1.963250,138.393173 
	C1.961330,139.359467 1.612161,140.325058 1.212326,141.645493 
	C1.000000,121.312439 1.000000,100.624878 1.000001,79.468658 
z"/>
<path fill="#F9FBFE" opacity="1.000000" stroke="none" 
	d="
M323.914154,39.406082 
	C396.590485,39.003109 469.249908,38.950954 541.909180,39.020557 
	C578.009705,39.055141 606.000610,63.437138 609.871216,98.333466 
	C599.026306,87.058548 586.410156,78.112976 570.573669,74.712265 
	C564.609558,73.431549 558.419495,72.606552 552.330505,72.594658 
	C479.604248,72.452560 406.877625,72.502937 334.151093,72.502930 
	C332.008240,72.502930 329.865387,72.502930 328.334106,72.502930 
	C326.813873,61.300346 325.355530,50.553745 323.914154,39.406082 
z"/>
</svg>