<?xml version="1.0" encoding="UTF-8" standalone="no"?>
<!-- Created with Inkscape (http://www.inkscape.org/) -->

<svg
   version="1.1"
   id="svg2"
   width="341.33334"
   height="341.33334"
   viewBox="0 0 341.33334 341.33334"
   sodipodi:docname="icould.ai"
   xmlns:inkscape="http://www.inkscape.org/namespaces/inkscape"
   xmlns:sodipodi="http://sodipodi.sourceforge.net/DTD/sodipodi-0.dtd"
   xmlns="http://www.w3.org/2000/svg"
   xmlns:svg="http://www.w3.org/2000/svg">
  <defs
     id="defs6">
    <linearGradient
       x1="0"
       y1="0"
       x2="1"
       y2="0"
       gradientUnits="userSpaceOnUse"
       gradientTransform="matrix(205,0,0,-205,25.811178,127.95468)"
       spreadMethod="pad"
       id="linearGradient26">
      <stop
         style="stop-opacity:1;stop-color:#ededed"
         offset="0"
         id="stop22" />
      <stop
         style="stop-opacity:1;stop-color:#bebebe"
         offset="1"
         id="stop24" />
    </linearGradient>
    <linearGradient
       x1="0"
       y1="0"
       x2="1"
       y2="0"
       gradientUnits="userSpaceOnUse"
       gradientTransform="matrix(170,0,0,-170,43,128)"
       spreadMethod="pad"
       id="linearGradient48">
      <stop
         style="stop-opacity:1;stop-color:#12dbc3"
         offset="0"
         id="stop42" />
      <stop
         style="stop-opacity:1;stop-color:#12dbc3"
         offset="0.79908746"
         id="stop44" />
      <stop
         style="stop-opacity:1;stop-color:#006bba"
         offset="1"
         id="stop46" />
    </linearGradient>
  </defs>
  <sodipodi:namedview
     id="namedview4"
     pagecolor="#ffffff"
     bordercolor="#000000"
     borderopacity="0.25"
     inkscape:showpageshadow="2"
     inkscape:pageopacity="0.0"
     inkscape:pagecheckerboard="0"
     inkscape:deskcolor="#d1d1d1" />
  <g
     id="g8"
     inkscape:groupmode="layer"
     inkscape:label="icould"
     transform="matrix(1.3333333,0,0,-1.3333333,0,341.33333)">
    <g
       id="g10">
      <g
         id="g12">
        <g
           id="g18">
          <g
             id="g20">
            <path
               d="m 59.067,230.455 c -18.367,0 -33.256,-14.89 -33.256,-33.256 v 0 V 58.71 c 0,-18.367 14.889,-33.255 33.256,-33.255 v 0 h 138.488 c 18.368,0 33.256,14.888 33.256,33.255 v 0 138.489 c 0,18.366 -14.888,33.256 -33.256,33.256 v 0 z"
               style="fill:url(#linearGradient26);stroke:none"
               id="path28" />
          </g>
        </g>
      </g>
    </g>
    <g
       id="g30">
      <g
         id="g32">
        <g
           id="g38">
          <g
             id="g40">
            <path
               d="m 114.343,170.114 c -2.708,0.624 -5.542,0.953 -8.443,0.953 v 0 c -16.082,0 -29.829,-9.997 -35.36,-24.118 v 0 C 54.639,142.416 43,127.785 43,110.434 v 0 C 43,89.466 60.566,72.467 81.534,72.467 v 0 c 11.265,0 22.507,1.28 29.466,9.067 v 0 c 6.958,-7.787 15.935,-9.067 27.2,-9.067 v 0 c 6.8,0 12.614,1.79 18.134,4.919 v 0 c 5.518,-3.129 14.733,-4.919 21.533,-4.919 v 0 c 20.966,0 35.133,16.999 35.133,37.967 v 0 c 0,17.351 -11.639,31.982 -27.54,36.515 v 0 c -1.462,3.741 -3.502,7.186 -6.006,10.234 v 0 c -4.908,15.289 -19.245,26.35 -36.154,26.35 v 0 c -11.606,0 -21.998,-5.213 -28.957,-13.419"
               style="fill:url(#linearGradient48);stroke:none"
               id="path50" />
          </g>
        </g>
      </g>
    </g>
  </g>
</svg>
