<?xml version="1.0" encoding="UTF-8"?>
<!DOCTYPE svg PUBLIC "-//W3C//DTD SVG 1.1//EN" "http://www.w3.org/Graphics/SVG/1.1/DTD/svg11.dtd">
<svg xmlns="http://www.w3.org/2000/svg" version="1.1" width="1067px" height="1067px" style="shape-rendering:geometricPrecision; text-rendering:geometricPrecision; image-rendering:optimizeQuality; fill-rule:evenodd; clip-rule:evenodd" xmlns:xlink="http://www.w3.org/1999/xlink">
<g><path style="opacity:0.998" fill="#efefef" d="M 226.5,103.5 C 429.5,103.333 632.5,103.5 835.5,104C 889.604,112.109 927.438,141.276 949,191.5C 954.044,204.719 957.044,218.386 958,232.5C 958.667,431.5 958.667,630.5 958,829.5C 951.365,887.453 921.198,927.62 867.5,950C 855.212,954.458 842.545,957.124 829.5,958C 630.5,958.667 431.5,958.667 232.5,958C 169.261,950.801 127.761,916.968 108,856.5C 106.281,849.573 104.948,842.573 104,835.5C 103.333,632.5 103.333,429.5 104,226.5C 112.246,171.815 141.746,133.648 192.5,112C 203.73,108.192 215.063,105.359 226.5,103.5 Z"/></g>
<g><path style="opacity:1" fill="#353535" d="M 464.5,290.5 C 515.538,290.023 566.538,290.523 617.5,292C 631.81,295.573 643.643,303.073 653,314.5C 660.959,327.584 668.793,340.751 676.5,354C 716.5,354.333 756.5,354.667 796.5,355C 825.571,360.071 843.737,376.904 851,405.5C 851.667,509.5 851.667,613.5 851,717.5C 844.795,748.706 825.962,766.539 794.5,771C 617.833,771.667 441.167,771.667 264.5,771C 240.485,767.069 223.652,753.903 214,731.5C 211.875,725.332 210.541,718.999 210,712.5C 209.333,611.833 209.333,511.167 210,410.5C 214.693,380.472 231.86,361.972 261.5,355C 307.833,354.667 354.167,354.333 400.5,354C 408.333,340.833 416.167,327.667 424,314.5C 434.628,301.444 448.128,293.444 464.5,290.5 Z"/></g>
<g><path style="opacity:1" fill="#353535" d="M 277.5,292.5 C 295.836,292.333 314.17,292.5 332.5,293C 340,295.167 344.833,300 347,307.5C 347.5,316.16 347.666,324.827 347.5,333.5C 319.833,333.5 292.167,333.5 264.5,333.5C 264.334,324.161 264.5,314.827 265,305.5C 268.025,299.977 272.191,295.644 277.5,292.5 Z"/></g>
<g><path style="opacity:1" fill="#fbc81a" d="M 777.5,389.5 C 802.581,390.665 811.748,403.332 805,427.5C 795.247,440.646 783.08,443.48 768.5,436C 753.84,421.958 753.84,407.958 768.5,394C 771.592,392.454 774.592,390.954 777.5,389.5 Z"/></g>
<g><path style="opacity:1" fill="#ededed" d="M 516.5,429.5 C 572.769,426.548 615.935,448.548 646,495.5C 664.049,527.212 668.716,560.878 660,596.5C 641.431,655.059 601.598,688.226 540.5,696C 485.73,697.869 443.896,675.702 415,629.5C 387.902,576.019 392.235,525.352 428,477.5C 451.663,450.588 481.163,434.588 516.5,429.5 Z"/></g>
<g><path style="opacity:1" fill="#353535" d="M 517.5,450.5 C 574.81,448.053 614.644,473.053 637,525.5C 650.905,573.509 639.738,614.675 603.5,649C 568.276,676.527 529.61,682.527 487.5,667C 438.257,643.041 415.424,603.541 419,548.5C 429.802,493.531 462.635,460.865 517.5,450.5 Z"/></g>
</svg>
