<?xml version="1.0" encoding="UTF-8" standalone="no"?>
<!-- Created with Inkscape (http://www.inkscape.org/) -->

<svg
   version="1.1"
   id="svg2"
   width="341.33334"
   height="341.33334"
   viewBox="0 0 341.33334 341.33334"
   sodipodi:docname="crapstore.ai"
   xmlns:inkscape="http://www.inkscape.org/namespaces/inkscape"
   xmlns:sodipodi="http://sodipodi.sourceforge.net/DTD/sodipodi-0.dtd"
   xmlns="http://www.w3.org/2000/svg"
   xmlns:svg="http://www.w3.org/2000/svg">
  <defs
     id="defs6">
    <clipPath
       clipPathUnits="userSpaceOnUse"
       id="clipPath16">
      <path
         d="M 0,256 H 256 V 0 H 0 Z"
         id="path14" />
    </clipPath>
  </defs>
  <sodipodi:namedview
     id="namedview4"
     pagecolor="#ffffff"
     bordercolor="#000000"
     borderopacity="0.25"
     inkscape:showpageshadow="2"
     inkscape:pageopacity="0.0"
     inkscape:pagecheckerboard="0"
     inkscape:deskcolor="#d1d1d1" />
  <g
     id="g8"
     inkscape:groupmode="layer"
     inkscape:label="crapstore"
     transform="matrix(1.3333333,0,0,-1.3333333,0,341.33333)">
    <g
       id="g10">
      <g
         id="g12"
         clip-path="url(#clipPath16)">
        <g
           id="g18"
           transform="translate(203.4574,25.5)">
          <path
             d="m 0,0 h -150.915 c -14.935,0 -27.042,12.107 -27.042,27.043 v 150.914 c 0,14.936 12.107,27.043 27.042,27.043 H 0 c 14.935,0 27.043,-12.107 27.043,-27.043 V 27.043 C 27.043,12.107 14.935,0 0,0"
             style="fill:#109edc;fill-opacity:1;fill-rule:nonzero;stroke:none"
             id="path20" />
        </g>
        <g
           id="g22"
           transform="translate(155.8842,201.6324)">
          <path
             d="m 0,0 v 0 c 3.281,-1.742 4.405,-5.599 2.511,-8.615 l -46.466,-73.988 -11.882,6.307 46.466,73.988 C -7.477,0.708 -3.281,1.742 0,0"
             style="fill:#e1e1e1;fill-opacity:1;fill-rule:nonzero;stroke:none"
             id="path24" />
        </g>
        <g
           id="g26"
           transform="translate(100.2124,202.6497)">
          <path
             d="m 0,0 v 0 c -3.374,-1.795 -4.53,-5.77 -2.582,-8.879 l 47.773,-76.252 12.217,6.5 L 9.635,-2.379 C 7.687,0.73 3.373,1.795 0,0"
             style="fill:#d1d1d1;fill-opacity:1;fill-rule:nonzero;stroke:none"
             id="path28" />
        </g>
        <g
           id="g30"
           transform="translate(67.6926,111.9943)">
          <path
             d="M 0,0 V -0.263 C 0,-3.78 2.851,-6.631 6.369,-6.631 H 67.2 v 13 H 6.369 C 2.851,6.369 0,3.517 0,0"
             style="fill:#ffffff;fill-opacity:1;fill-rule:nonzero;stroke:none"
             id="path32" />
        </g>
        <g
           id="g34"
           transform="translate(62.7469,53.3244)">
          <path
             d="M 0,0 V 0 C -3.281,1.742 -4.405,5.599 -2.511,8.615 L 43.955,82.603 55.837,76.296 9.371,2.308 C 7.477,-0.708 3.281,-1.742 0,0"
             style="fill:#e1e1e1;fill-opacity:1;fill-rule:nonzero;stroke:none"
             id="path36" />
        </g>
        <g
           id="g38"
           transform="translate(193.1565,54.3932)">
          <path
             d="M 0,0 V 0 C 3.374,1.795 4.53,5.77 2.582,8.879 L -45.191,85.131 -57.408,78.631 -9.635,2.379 C -7.687,-0.73 -3.373,-1.795 0,0"
             style="fill:#d1d1d1;fill-opacity:1;fill-rule:nonzero;stroke:none"
             id="path40" />
        </g>
        <g
           id="g42"
           transform="translate(187.6926,111.9943)">
          <path
             d="M 0,0 V -0.263 C 0,-3.78 -2.851,-6.631 -6.369,-6.631 H -67.2 v 13 H -6.369 C -2.851,6.369 0,3.517 0,0"
             style="fill:#ffffff;fill-opacity:1;fill-rule:nonzero;stroke:none"
             id="path44" />
        </g>
      </g>
    </g>
  </g>
</svg>
