<svg version="1.1" id="Layer_1" xmlns="http://www.w3.org/2000/svg" xmlns:xlink="http://www.w3.org/1999/xlink" x="0px" y="0px"
	 width="100%" viewBox="0 0 1067 1067" enable-background="new 0 0 1067 1067" xml:space="preserve">
<path fill="none" opacity="1.000000" stroke="none" 
	d="
M630.000000,1068.000000 
	C420.024475,1068.000000 210.548950,1068.000000 1.036712,1068.000000 
	C1.036712,712.399353 1.036712,356.798706 1.036712,1.099039 
	C356.559052,1.099039 712.118164,1.099039 1067.838623,1.099039 
	C1067.838623,356.666595 1067.838623,712.333313 1067.838623,1068.000000 
	C922.131592,1068.000000 776.315796,1068.000000 630.000000,1068.000000 
M962.000000,683.500000 
	C962.000000,528.017212 962.017334,372.534454 961.925598,217.051743 
	C961.922485,211.800980 961.089111,206.504150 960.185120,201.308395 
	C955.767090,175.914520 943.957397,154.654800 924.839417,137.233917 
	C904.432129,118.638184 880.380798,108.245728 853.109314,108.199303 
	C641.133423,107.838463 429.156555,107.992447 217.179993,108.046585 
	C212.225967,108.047852 207.193817,108.308685 202.330948,109.185303 
	C172.177643,114.620972 147.218399,128.921997 128.906509,153.752518 
	C114.730339,172.975082 107.042328,194.661148 107.035416,218.675400 
	C106.974380,430.818573 106.991470,642.961792 107.054382,855.104980 
	C107.055801,859.883545 107.443352,864.746033 108.370407,869.426819 
	C114.992676,902.863220 132.064377,929.274353 161.566025,946.999939 
	C178.373688,957.098633 196.555130,962.978882 216.325333,962.981628 
	C428.968475,963.010986 641.611633,963.007385 854.254761,962.950623 
	C858.873352,962.949402 863.571899,962.625916 868.097229,961.750122 
	C897.257263,956.106934 921.376892,942.103760 939.363159,918.143311 
	C953.855469,898.837402 961.805481,877.114502 961.917114,852.981018 
	C962.177002,796.821716 962.000000,740.660461 962.000000,683.500000 
z"/>
<path fill="#F4F4F4" opacity="1.000000" stroke="none" 
	d="
M962.000000,684.000000 
	C962.000000,740.660461 962.177002,796.821716 961.917114,852.981018 
	C961.805481,877.114502 953.855469,898.837402 939.363159,918.143311 
	C921.376892,942.103760 897.257263,956.106934 868.097229,961.750122 
	C863.571899,962.625916 858.873352,962.949402 854.254761,962.950623 
	C641.611633,963.007385 428.968475,963.010986 216.325333,962.981628 
	C196.555130,962.978882 178.373688,957.098633 161.566025,946.999939 
	C132.064377,929.274353 114.992676,902.863220 108.370407,869.426819 
	C107.443352,864.746033 107.055801,859.883545 107.054382,855.104980 
	C106.991470,642.961792 106.974380,430.818573 107.035416,218.675400 
	C107.042328,194.661148 114.730339,172.975082 128.906509,153.752518 
	C147.218399,128.921997 172.177643,114.620972 202.330948,109.185303 
	C207.193817,108.308685 212.225967,108.047852 217.179993,108.046585 
	C429.156555,107.992447 641.133423,107.838463 853.109314,108.199303 
	C880.380798,108.245728 904.432129,118.638184 924.839417,137.233917 
	C943.957397,154.654800 955.767090,175.914520 960.185120,201.308395 
	C961.089111,206.504150 961.922485,211.800980 961.925598,217.051743 
	C962.017334,372.534454 962.000000,528.017212 962.000000,684.000000 
M449.546326,613.831543 
	C445.276581,605.953430 440.891571,598.135254 436.754639,590.187988 
	C386.437622,493.526642 336.159515,396.845062 285.858398,300.175415 
	C283.838776,296.294037 281.690735,292.479431 279.274384,288.029449 
	C216.207550,355.343567 183.251511,434.179596 179.898605,526.173035 
	C198.566376,526.173035 216.325287,526.173035 234.049927,526.173035 
	C234.049927,531.910767 234.049927,537.152283 234.049927,542.975464 
	C215.935211,542.975464 198.209274,542.975464 180.127853,542.975464 
	C180.127853,545.366516 179.943146,547.192444 180.156326,548.970581 
	C182.352112,567.286011 183.230637,585.889648 187.079163,603.855408 
	C211.688293,718.736206 277.305450,802.201904 382.300720,854.404846 
	C427.278229,876.767395 475.527985,887.086975 526.632446,888.955444 
	C532.198730,888.930359 537.764954,888.905212 544.190552,888.725891 
	C547.782532,888.484253 551.400757,888.440796 554.962036,887.967957 
	C573.738342,885.474731 592.770874,884.113464 611.219055,880.088745 
	C680.776001,864.913757 740.221436,831.177368 789.665283,779.958496 
	C830.452637,737.706787 858.765930,688.223511 875.132019,631.832825 
	C883.527222,602.906616 887.336243,573.303467 888.960876,542.344971 
	C888.931335,536.777710 888.901794,531.210510 888.723877,524.836426 
	C888.483276,522.705078 888.065002,520.576721 888.028809,518.441956 
	C887.551392,490.299194 882.900574,462.755798 874.786438,435.917786 
	C844.851685,336.907379 783.606506,263.781708 691.550476,216.726791 
	C652.153992,196.589050 610.027771,185.396744 566.017212,181.296021 
	C558.470947,180.592911 550.875854,180.412918 542.799927,179.963226 
	C542.799927,195.659012 542.799927,210.580276 542.799927,225.629166 
	C536.950439,225.629166 531.583496,225.629166 525.794373,225.629166 
	C525.794373,210.339569 525.794373,195.416687 525.794373,179.848755 
	C430.334778,183.622284 349.233032,218.794785 281.277710,285.988434 
	C282.929321,287.001984 283.848358,287.646484 284.835449,288.160309 
	C358.467896,326.489899 432.112457,364.796204 505.740082,403.135071 
	C539.377014,420.650269 572.981445,438.227966 606.137695,456.376068 
	C555.285889,507.257904 504.429291,558.134949 453.609131,609.048340 
	C452.282257,610.377686 451.353088,612.104065 449.546326,613.831543 
z"/>
<path fill="#109EDC" opacity="1.000000" stroke="none" 
	d="
M606.600586,455.777283 
	C572.981445,438.227966 539.377014,420.650269 505.740082,403.135071 
	C432.112457,364.796204 358.467896,326.489899 284.835449,288.160309 
	C283.848358,287.646484 282.929321,287.001984 281.277710,285.988434 
	C349.233032,218.794785 430.334778,183.622284 525.794373,179.848755 
	C525.794373,195.416687 525.794373,210.339569 525.794373,225.629166 
	C531.583496,225.629166 536.950439,225.629166 542.799927,225.629166 
	C542.799927,210.580276 542.799927,195.659012 542.799927,179.963226 
	C550.875854,180.412918 558.470947,180.592911 566.017212,181.296021 
	C610.027771,185.396744 652.153992,196.589050 691.550476,216.726791 
	C783.606506,263.781708 844.851685,336.907379 874.786438,435.917786 
	C882.900574,462.755798 887.551392,490.299194 888.028809,518.441956 
	C888.065002,520.576721 888.483276,522.705078 888.352051,525.360535 
	C870.200989,525.884644 852.421814,525.884644 834.551392,525.884644 
	C834.551392,531.889038 834.551392,537.249756 834.551392,542.866516 
	C843.471130,542.866516 851.959778,542.806396 860.447144,542.882507 
	C869.925354,542.967468 879.402405,543.176208 888.880005,543.331055 
	C887.336243,573.303467 883.527222,602.906616 875.132019,631.832825 
	C858.765930,688.223511 830.452637,737.706787 789.665283,779.958496 
	C740.221436,831.177368 680.776001,864.913757 611.219055,880.088745 
	C592.770874,884.113464 573.738342,885.474731 554.962036,887.967957 
	C551.400757,888.440796 547.782532,888.484253 543.605957,888.364685 
	C543.021423,870.228149 543.021423,852.452759 543.021423,834.528870 
	C536.931091,834.528870 531.570374,834.528870 525.989380,834.528870 
	C525.989380,838.099548 526.009033,841.258911 525.986084,844.418030 
	C525.878357,859.236084 525.758972,874.054138 525.643799,888.872192 
	C475.527985,887.086975 427.278229,876.767395 382.300720,854.404846 
	C277.305450,802.201904 211.688293,718.736206 187.079163,603.855408 
	C183.230637,585.889648 182.352112,567.286011 180.156326,548.970581 
	C179.943146,547.192444 180.127853,545.366516 180.127853,542.975464 
	C198.209274,542.975464 215.935211,542.975464 234.049927,542.975464 
	C234.049927,537.152283 234.049927,531.910767 234.049927,526.173035 
	C216.325287,526.173035 198.566376,526.173035 179.898605,526.173035 
	C183.251511,434.179596 216.207550,355.343567 279.274384,288.029449 
	C281.690735,292.479431 283.838776,296.294037 285.858398,300.175415 
	C336.159515,396.845062 386.437622,493.526642 436.754639,590.187988 
	C440.891571,598.135254 445.276581,605.953430 450.237488,613.834473 
	C462.004333,619.556335 473.095520,625.245483 484.153259,630.998901 
	C581.057617,681.418884 677.955444,731.851501 774.861694,782.267761 
	C776.076599,782.899780 777.375732,783.369690 779.342590,784.221558 
	C778.534119,782.538269 778.139221,781.653442 777.692749,780.795349 
	C740.395752,709.113220 703.093872,637.433655 665.794373,565.752869 
	C647.221375,530.060059 628.667603,494.357178 610.015625,458.705627 
	C609.370056,457.471710 607.760742,456.742004 606.600586,455.777283 
z"/>
<path fill="#BE102D" opacity="1.000000" stroke="none" 
	d="
M606.369141,456.076660 
	C607.760742,456.742004 609.370056,457.471710 610.015625,458.705627 
	C628.667603,494.357178 647.221375,530.060059 665.794373,565.752869 
	C703.093872,637.433655 740.395752,709.113220 777.692749,780.795349 
	C778.139221,781.653442 778.534119,782.538269 779.342590,784.221558 
	C777.375732,783.369690 776.076599,782.899780 774.861694,782.267761 
	C677.955444,731.851501 581.057617,681.418884 484.153259,630.998901 
	C473.095520,625.245483 462.004333,619.556335 450.583557,613.741333 
	C451.353088,612.104065 452.282257,610.377686 453.609131,609.048340 
	C504.429291,558.134949 555.285889,507.257904 606.369141,456.076660 
z"/>
<path fill="#EFF2F3" opacity="1.000000" stroke="none" 
	d="
M888.920410,542.838013 
	C879.402405,543.176208 869.925354,542.967468 860.447144,542.882507 
	C851.959778,542.806396 843.471130,542.866516 834.551392,542.866516 
	C834.551392,537.249756 834.551392,531.889038 834.551392,525.884644 
	C852.421814,525.884644 870.200989,525.884644 888.426270,525.763916 
	C888.901794,531.210510 888.931335,536.777710 888.920410,542.838013 
z"/>
<path fill="#EFF2F3" opacity="1.000000" stroke="none" 
	d="
M526.138123,888.913818 
	C525.758972,874.054138 525.878357,859.236084 525.986084,844.418030 
	C526.009033,841.258911 525.989380,838.099548 525.989380,834.528870 
	C531.570374,834.528870 536.931091,834.528870 543.021423,834.528870 
	C543.021423,852.452759 543.021423,870.228149 543.176331,888.441772 
	C537.764954,888.905212 532.198730,888.930359 526.138123,888.913818 
z"/>
</svg>